<svg xmlns="http://www.w3.org/2000/svg" width="104" height="101.917" viewBox="0 0 104 101.917">
  <g id="logo" transform="translate(-341.5 -4277)">
    <g id="logo-2" data-name="logo" transform="translate(316.945 4252.959)">
      <g id="Сгруппировать_6" data-name="Сгруппировать 6">
        <g id="Сгруппировать_4" data-name="Сгруппировать 4">
          <path id="Контур_4" data-name="Контур 4" d="M100.926,67.654h.009c-.031-.019-.064-.033-.094-.051A36.972,36.972,0,0,0,87.69,62.741a64.085,64.085,0,0,0-28.946,1.018l-1.917,7.778a35,35,0,0,0-10.8,17.816c-11.694,2.6-13.879,8.163-13.879,8.163h85.813A35.019,35.019,0,0,0,100.926,67.654ZM60.7,69.563l.815-4.19S85.56,59.491,100.953,70.4C100.953,70.4,77.239,63.025,60.7,69.563Z" fill="#fea621"/>
        </g>
        <path id="Контур_5" data-name="Контур 5" d="M61.1,46.652c-1.127-.724-2.432-2.23-2.74-5.362-.368-3.758,4.182-6.858,4.182-6.858C40.249,37.3,41.5,48.512,42.665,53.812c.005.025.009.049.014.075.951,4.448-1.214,6.709-3.029,7.874a3.19,3.19,0,0,0-.718.573,10.162,10.162,0,0,0-.98,2.1l-1,2.688a2.427,2.427,0,0,0,1.519,3.135l7.685,2.691a2.555,2.555,0,0,0,3.242-1.469l1-2.687a10.068,10.068,0,0,0,.638-2.224,2.527,2.527,0,0,0-.134-.764c-1.7-5.52,5.494-9.35,8.769-9.422C90.5,55.7,104.3,61.534,119.322,79.526,119.322,79.526,108.645,51.5,61.1,46.652Z" fill="#fff"/>
        <g id="Сгруппировать_5" data-name="Сгруппировать 5">
          <path id="Контур_6" data-name="Контур 6" d="M82.636,25.11A11.031,11.031,0,0,0,71.081,26.4l8.187,3.9a2.176,2.176,0,0,1,1.038,2.956L78.39,37.026a2.318,2.318,0,0,1-3.054,1.006l-8.187-3.9a10.355,10.355,0,0,0,5.992,9.649,11.041,11.041,0,0,0,11.075-.927s20.369,5.981,36.751,29.134c-7.1-23.294-32.336-37.82-32.336-37.82A10.378,10.378,0,0,0,82.636,25.11Z" fill="#fff"/>
        </g>
      </g>
      <text id="РОС.ТРУД" transform="translate(76.555 119.958)" fill="#fff" font-size="23" font-family="SegoeUI, Segoe UI"><tspan x="-51.688" y="0">РОС.ТРУД</tspan></text>
    </g>
    <path id="Color_Overlay" data-name="Color Overlay" d="M442.683,4377.24v-4.324H431.149v4.324h-1.74v-6.031h1.247a33.617,33.617,0,0,0,2.745-6.9,32.09,32.09,0,0,0,1.274-7.5h7.581v14.4h2.167v6.031Zm-7.636-12.231a33.229,33.229,0,0,1-2.348,6.2h7.671v-12.69h-4.088A31.72,31.72,0,0,1,435.047,4365.009Zm-17.913,7.84v-1.909a3.67,3.67,0,0,0,1.865.572,2.426,2.426,0,0,0,1.673-.7,8.824,8.824,0,0,0,1.65-2.476l-5.458-11.522h2.144l3.865,8.6q.1.215.414,1.045h.023q.033-.1.46-1.089l3.582-8.559h2.022l-4.975,11.241a12.026,12.026,0,0,1-2.561,4.066,4.022,4.022,0,0,1-2.7,1.079A5.1,5.1,0,0,1,417.134,4372.85Zm-41.98-1.876a8.166,8.166,0,0,1-2.066-5.806,8.555,8.555,0,0,1,2.325-6.244,7.89,7.89,0,0,1,5.9-2.38,9.463,9.463,0,0,1,3.8.662v2.01a7.7,7.7,0,0,0-3.819-.966,5.86,5.86,0,0,0-4.5,1.853,6.982,6.982,0,0,0-1.725,4.952,6.638,6.638,0,0,0,1.613,4.69,5.483,5.483,0,0,0,4.227,1.746,7.937,7.937,0,0,0,4.2-1.078v1.83a9.44,9.44,0,0,1-4.447.945A7.172,7.172,0,0,1,375.155,4370.973Zm-17.345-.045a8.37,8.37,0,0,1-2.061-5.874,8.882,8.882,0,0,1,2.1-6.2,7.341,7.341,0,0,1,5.717-2.312,6.914,6.914,0,0,1,5.374,2.245,8.4,8.4,0,0,1,2.038,5.874,8.9,8.9,0,0,1-2.088,6.233,7.2,7.2,0,0,1-5.593,2.292A7.065,7.065,0,0,1,357.81,4370.928Zm1.5-10.848a8.142,8.142,0,0,0-.038,9.6,5.036,5.036,0,0,0,4.026,1.814,5.286,5.286,0,0,0,4.178-1.729,7.064,7.064,0,0,0,1.527-4.839,7.386,7.386,0,0,0-1.482-4.93,5.083,5.083,0,0,0-4.088-1.742A5.193,5.193,0,0,0,359.308,4360.08Zm28.588,12.713a1.22,1.22,0,0,1-.366-.888,1.238,1.238,0,0,1,.366-.893,1.179,1.179,0,0,1,.881-.375,1.212,1.212,0,0,1,.9.375,1.23,1.23,0,0,1,.371.893,1.212,1.212,0,0,1-.371.888,1.228,1.228,0,0,1-.9.37A1.194,1.194,0,0,1,387.9,4372.793Zm17.524.123v-16.1h4.426a5.835,5.835,0,0,1,4,1.258,4.492,4.492,0,0,1,1.42,3.549,4.886,4.886,0,0,1-1.578,3.751,6.035,6.035,0,0,1-4.262,1.459h-2.122v6.087Zm1.887-7.794h1.976a4.422,4.422,0,0,0,2.983-.893,3.163,3.163,0,0,0,1.027-2.521q0-3.188-3.773-3.189h-2.212Zm-10.95,7.794v-14.4h-4.637v-1.707h11.174v1.707h-4.65v14.4Zm-52.435,0v-16.1h4.425a5.832,5.832,0,0,1,4,1.258,4.493,4.493,0,0,1,1.422,3.549,4.883,4.883,0,0,1-1.579,3.751,6.032,6.032,0,0,1-4.261,1.459H345.81v6.087Zm1.887-7.794h1.976a4.417,4.417,0,0,0,2.981-.893,3.159,3.159,0,0,0,1.027-2.521q0-3.188-3.772-3.189H345.81Zm25.9-14.647H349.095s2.186-5.564,13.88-8.164a35,35,0,0,1,10.8-17.816l1.917-7.778a64.094,64.094,0,0,1,28.947-1.018,36.989,36.989,0,0,1,13.151,4.861c.03.019.063.032.093.051h-.009a35.019,35.019,0,0,1,17.037,29.863Zm22.31-30.657a90.876,90.876,0,0,1,23.875,3.538c-15.394-10.905-39.439-5.024-39.439-5.024l-.814,4.19a44.994,44.994,0,0,1,16.367-2.7Zm-17.412-10.476c-3.274.074-10.472,3.9-8.769,9.422a2.538,2.538,0,0,1,.134.765,10.06,10.06,0,0,1-.638,2.224l-1,2.686a2.554,2.554,0,0,1-3.242,1.469l-7.684-2.69a2.426,2.426,0,0,1-1.519-3.135l1-2.688a10.175,10.175,0,0,1,.98-2.1,3.179,3.179,0,0,1,.717-.571c1.816-1.166,3.981-3.427,3.03-7.875,0-.026-.008-.05-.013-.075-1.169-5.3-2.416-16.509,19.878-19.381,0,0-4.551,3.1-4.182,6.857.308,3.134,1.612,4.639,2.74,5.363,47.545,4.85,58.222,32.874,58.222,32.874C421.241,4314.493,407.447,4308.66,376.612,4309.343Zm24.55-13.528a11.044,11.044,0,0,1-11.076.928,10.356,10.356,0,0,1-5.991-9.651l8.186,3.9a2.32,2.32,0,0,0,3.054-1.006l1.916-3.769a2.175,2.175,0,0,0-1.039-2.955l-8.187-3.9a11.032,11.032,0,0,1,11.556-1.293,10.382,10.382,0,0,1,6,9.06s25.231,14.527,32.335,37.821C421.531,4301.8,401.163,4295.814,401.163,4295.814Z" fill="#fff"/>
  </g>
</svg>
